<svg width="1024" height="1024" viewBox="0 0 1024 1024" fill="none" xmlns="http://www.w3.org/2000/svg">
  <rect width="1024" height="1024" fill="#E9E9E7"/>

  <defs>
    <filter id="cardShadow" x="56" y="52" width="912" height="928" filterUnits="userSpaceOnUse" color-interpolation-filters="sRGB">
      <feFlood flood-opacity="0" result="BackgroundImageFix"/>
      <feColorMatrix in="SourceAlpha" type="matrix" values="0 0 0 0 0 0 0 0 0 0 0 0 0 0 0 0 0 0 127 0" result="hardAlpha"/>
      <feOffset dy="18"/>
      <feGaussianBlur stdDeviation="28"/>
      <feColorMatrix type="matrix" values="0 0 0 0 0.03 0 0 0 0 0.04 0 0 0 0 0.07 0 0 0 0.10 0"/>
      <feBlend mode="normal" in2="BackgroundImageFix" result="effect1_dropShadow_1"/>
      <feBlend mode="normal" in="SourceGraphic" in2="effect1_dropShadow_1" result="shape"/>
    </filter>
  </defs>

  <g filter="url(#cardShadow)">
    <rect x="112" y="104" width="800" height="816" rx="164" fill="#F5F5F3"/>
  </g>

  <g stroke="#040B18" stroke-width="38" fill="none" stroke-linejoin="round" stroke-linecap="square">
    <rect x="294" y="294" width="124" height="124" rx="12"/>
    <rect x="606" y="294" width="124" height="124" rx="12"/>
    <rect x="294" y="606" width="124" height="124" rx="12"/>
    <rect x="606" y="606" width="124" height="124" rx="12"/>

    <line x1="294" y1="512" x2="176" y2="512"/>
    <line x1="848" y1="512" x2="730" y2="512"/>
    <line x1="512" y1="294" x2="512" y2="176"/>
    <line x1="512" y1="848" x2="512" y2="730"/>

    <line x1="418" y1="418" x2="454" y2="454"/>
    <line x1="606" y1="418" x2="570" y2="454"/>
    <line x1="418" y1="606" x2="454" y2="570"/>
    <line x1="606" y1="606" x2="570" y2="570"/>
  </g>

  <circle cx="512" cy="512" r="116" fill="#F5F5F3" stroke="#040B18" stroke-width="38"/>
  <circle cx="512" cy="512" r="52" fill="#040B18"/>
</svg>
