<svg xmlns="http://www.w3.org/2000/svg" viewBox="0 0 512 512">
  <rect width="512" height="512" rx="112" fill="#fff"/>
  <g fill="#050505">
    <circle cx="278" cy="83" r="3.2"/>
    <circle cx="305" cy="89" r="4.3"/>
    <circle cx="332" cy="99" r="5.4"/>
    <circle cx="358" cy="114" r="6.4"/>
    <circle cx="381" cy="135" r="7.5"/>
    <circle cx="399" cy="160" r="8.6"/>
    <circle cx="413" cy="190" r="9.6"/>
    <circle cx="419" cy="223" r="10.2"/>
    <circle cx="417" cy="257" r="10.7"/>
    <circle cx="408" cy="291" r="10.2"/>
    <circle cx="391" cy="323" r="9.6"/>
    <circle cx="367" cy="352" r="8.6"/>
    <circle cx="337" cy="375" r="7.5"/>
    <circle cx="302" cy="392" r="6.4"/>
    <circle cx="264" cy="401" r="5.4"/>
    <circle cx="225" cy="401" r="4.3"/>
    <circle cx="186" cy="392" r="3.2"/>

    <circle cx="247" cy="96" r="3.5"/>
    <circle cx="277" cy="96" r="5.1"/>
    <circle cx="307" cy="102" r="6.8"/>
    <circle cx="336" cy="114" r="8.4"/>
    <circle cx="363" cy="132" r="10"/>
    <circle cx="386" cy="156" r="11.6"/>
    <circle cx="403" cy="185" r="13.1"/>
    <circle cx="412" cy="218" r="14"/>
    <circle cx="414" cy="253" r="14.5"/>
    <circle cx="406" cy="288" r="13.7"/>
    <circle cx="390" cy="321" r="12.3"/>
    <circle cx="365" cy="350" r="10.8"/>
    <circle cx="335" cy="374" r="9.2"/>
    <circle cx="299" cy="389" r="7.5"/>
    <circle cx="260" cy="397" r="5.9"/>
    <circle cx="220" cy="395" r="4.4"/>
    <circle cx="181" cy="384" r="3.2"/>

    <circle cx="219" cy="113" r="3.8"/>
    <circle cx="251" cy="106" r="5.7"/>
    <circle cx="284" cy="106" r="7.7"/>
    <circle cx="317" cy="113" r="9.7"/>
    <circle cx="348" cy="128" r="11.7"/>
    <circle cx="375" cy="151" r="13.7"/>
    <circle cx="396" cy="181" r="15.3"/>
    <circle cx="409" cy="216" r="16.2"/>
    <circle cx="413" cy="253" r="16.5"/>
    <circle cx="405" cy="291" r="15.3"/>
    <circle cx="387" cy="326" r="13.4"/>
    <circle cx="359" cy="357" r="11.5"/>
    <circle cx="325" cy="381" r="9.5"/>
    <circle cx="285" cy="395" r="7.4"/>
    <circle cx="243" cy="398" r="5.4"/>
    <circle cx="201" cy="390" r="3.8"/>

    <circle cx="193" cy="134" r="4"/>
    <circle cx="225" cy="119" r="6.1"/>
    <circle cx="260" cy="112" r="8.5"/>
    <circle cx="296" cy="115" r="10.9"/>
    <circle cx="331" cy="127" r="13.3"/>
    <circle cx="363" cy="149" r="15.8"/>
    <circle cx="388" cy="179" r="17.5"/>
    <circle cx="404" cy="216" r="18.2"/>
    <circle cx="409" cy="256" r="17.8"/>
    <circle cx="401" cy="296" r="16"/>
    <circle cx="380" cy="333" r="13.6"/>
    <circle cx="348" cy="365" r="11.2"/>
    <circle cx="309" cy="389" r="8.8"/>
    <circle cx="265" cy="400" r="6.4"/>
    <circle cx="219" cy="398" r="4.2"/>

    <circle cx="170" cy="158" r="4.1"/>
    <circle cx="201" cy="135" r="6.6"/>
    <circle cx="237" cy="120" r="9.3"/>
    <circle cx="276" cy="116" r="12.1"/>
    <circle cx="316" cy="124" r="14.8"/>
    <circle cx="353" cy="144" r="17.4"/>
    <circle cx="383" cy="175" r="19"/>
    <circle cx="401" cy="214" r="19.3"/>
    <circle cx="405" cy="258" r="17.8"/>
    <circle cx="395" cy="302" r="15.1"/>
    <circle cx="370" cy="342" r="12.4"/>
    <circle cx="333" cy="375" r="9.7"/>
    <circle cx="288" cy="396" r="6.9"/>
    <circle cx="238" cy="402" r="4.3"/>

    <circle cx="151" cy="185" r="3.9"/>
    <circle cx="179" cy="154" r="6.4"/>
    <circle cx="214" cy="132" r="9.4"/>
    <circle cx="254" cy="120" r="12.7"/>
    <circle cx="298" cy="122" r="15.8"/>
    <circle cx="340" cy="139" r="18.6"/>
    <circle cx="375" cy="170" r="19.6"/>
    <circle cx="398" cy="211" r="18.8"/>
    <circle cx="404" cy="258" r="16.5"/>
    <circle cx="391" cy="306" r="13.6"/>
    <circle cx="360" cy="349" r="10.5"/>
    <circle cx="317" cy="383" r="7.4"/>
    <circle cx="264" cy="401" r="4.5"/>

    <circle cx="137" cy="215" r="3.5"/>
    <circle cx="160" cy="177" r="6"/>
    <circle cx="193" cy="148" r="9"/>
    <circle cx="233" cy="128" r="12.4"/>
    <circle cx="279" cy="121" r="16"/>
    <circle cx="326" cy="132" r="19"/>
    <circle cx="366" cy="163" r="19.4"/>
    <circle cx="394" cy="207" r="17.7"/>
    <circle cx="402" cy="258" r="14.8"/>
    <circle cx="385" cy="310" r="11.5"/>
    <circle cx="349" cy="356" r="8.1"/>
    <circle cx="298" cy="391" r="4.8"/>

    <circle cx="130" cy="247" r="3"/>
    <circle cx="147" cy="203" r="5.3"/>
    <circle cx="176" cy="166" r="8"/>
    <circle cx="215" cy="139" r="11.5"/>
    <circle cx="262" cy="126" r="15.4"/>
    <circle cx="312" cy="131" r="18.7"/>
    <circle cx="357" cy="159" r="18.6"/>
    <circle cx="390" cy="204" r="15.8"/>
    <circle cx="400" cy="258" r="12.4"/>
    <circle cx="379" cy="315" r="8.8"/>
    <circle cx="337" cy="364" r="5.1"/>

    <circle cx="129" cy="281" r="2.6"/>
    <circle cx="139" cy="232" r="4.5"/>
    <circle cx="162" cy="188" r="6.9"/>
    <circle cx="198" cy="153" r="10.1"/>
    <circle cx="244" cy="132" r="14"/>
    <circle cx="297" cy="130" r="17.4"/>
    <circle cx="348" cy="156" r="16.6"/>
    <circle cx="386" cy="203" r="13"/>
    <circle cx="399" cy="260" r="9.2"/>
    <circle cx="374" cy="320" r="5.4"/>

    <circle cx="135" cy="314" r="2.3"/>
    <circle cx="139" cy="261" r="3.8"/>
    <circle cx="157" cy="211" r="5.8"/>
    <circle cx="188" cy="169" r="8.8"/>
    <circle cx="232" cy="140" r="12.7"/>
    <circle cx="287" cy="132" r="15.7"/>
    <circle cx="342" cy="157" r="14.2"/>
    <circle cx="383" cy="204" r="10"/>
    <circle cx="398" cy="262" r="5.8"/>

    <circle cx="148" cy="347" r="2.2"/>
    <circle cx="146" cy="291" r="3.2"/>
    <circle cx="159" cy="237" r="4.8"/>
    <circle cx="185" cy="190" r="7.4"/>
    <circle cx="226" cy="153" r="10.8"/>
    <circle cx="279" cy="139" r="12.7"/>
    <circle cx="335" cy="161" r="10.8"/>
    <circle cx="378" cy="207" r="6.6"/>

    <circle cx="168" cy="376" r="2.2"/>
    <circle cx="161" cy="319" r="2.8"/>
    <circle cx="169" cy="263" r="3.9"/>
    <circle cx="191" cy="211" r="6"/>
    <circle cx="227" cy="169" r="8.6"/>
    <circle cx="277" cy="148" r="9.4"/>
    <circle cx="330" cy="166" r="7.1"/>

    <circle cx="194" cy="400" r="2.2"/>
    <circle cx="181" cy="343" r="2.5"/>
    <circle cx="184" cy="286" r="3.1"/>
    <circle cx="201" cy="232" r="4.5"/>
    <circle cx="231" cy="187" r="6.2"/>
    <circle cx="276" cy="159" r="6.3"/>

    <circle cx="225" cy="417" r="2.1"/>
    <circle cx="207" cy="361" r="2.4"/>
    <circle cx="204" cy="305" r="2.6"/>
    <circle cx="217" cy="251" r="3.4"/>
    <circle cx="242" cy="205" r="4.3"/>

    <circle cx="258" cy="426" r="2.1"/>
    <circle cx="238" cy="373" r="2.3"/>
    <circle cx="231" cy="319" r="2.4"/>
    <circle cx="239" cy="268" r="2.7"/>
  </g>
</svg>
